<svg width="2176" height="2176" viewBox="0 0 2176 2176" fill="none" xmlns="http://www.w3.org/2000/svg">
<path fill-rule="evenodd" clip-rule="evenodd" d="M1087.71 2175.27C1688.34 2175.27 2175.26 1688.36 2175.26 1087.73C2175.26 487.088 1688.34 0.175293 1087.71 0.175293C487.07 0.175293 0.157227 487.088 0.157227 1087.73C0.157227 1688.36 487.07 2175.27 1087.71 2175.27ZM995.678 265.152L1029.12 298.598V1192.42H1000.37V1219.42H1029.12V1253.96H1056.12V1219.42L1949.95 1219.42L1980.33 1249.81L1999.42 1230.71L1988.13 1219.42H1991.66V1192.42H1961.13L1056.12 287.414V247.754H1029.12V260.414L1014.77 246.06L995.678 265.152ZM1056.12 1192.42V325.598L1922.95 1192.42L1380.81 1192.42V1005.6H1381.23V978.596H1367.31H1234.03V974.382H1207.03V992.096V1192.42H1056.12ZM1353.81 1005.6V1192.42L1234.03 1192.42V1005.6H1353.81ZM1103.15 1363.46L1203.73 1424.24C1203.71 1412.59 1203.69 1399.94 1203.66 1386.82C1203.63 1368.62 1203.59 1349.54 1203.58 1331.05C1201.79 1331.01 1199.99 1331 1198.17 1331C1163.32 1331 1130.99 1343.11 1103.15 1363.46ZM1230.58 1333.15C1230.59 1350.73 1230.63 1368.86 1230.66 1386.24C1230.7 1405.93 1230.74 1424.67 1230.74 1440.57L1270.25 1464.44L1281.47 1447.61L1323.76 1384.08C1321.41 1380.82 1318.86 1377.65 1316.11 1374.61C1297.99 1354.54 1270.35 1338.71 1230.58 1333.15ZM1339.53 1360.4C1338.43 1359.09 1337.3 1357.79 1336.15 1356.51C1310.55 1328.16 1271.54 1308.56 1218.04 1304.7C1211.62 1304.23 1205 1304 1198.17 1304C1149.35 1304 1105.6 1324.08 1070.74 1354.95C1019.95 1399.92 986.966 1468.61 983.135 1535.75C982.886 1540.1 982.76 1544.46 982.76 1548.8C982.76 1606.71 1010.8 1693.95 1071.26 1767.62C1132.13 1841.78 1226.41 1902.82 1358.95 1906.49C1363.14 1906.61 1367.36 1906.67 1371.62 1906.67C1497.92 1906.67 1634.37 1858.93 1744.36 1772.28C1871.51 1672.12 1963.91 1519.43 1963.91 1327.5C1963.91 1319.49 1957.75 1315.89 1956.43 1315.18C1954.5 1314.15 1952.67 1313.74 1951.83 1313.56C1949.91 1313.17 1947.84 1313.03 1946.25 1312.96C1942.85 1312.83 1938.63 1312.92 1934.78 1313.08C1930.84 1313.24 1926.94 1313.48 1924.04 1313.68C1922.59 1313.78 1921.38 1313.87 1920.52 1313.94C1920.22 1313.96 1919.97 1313.98 1919.76 1314L1380.21 1310.3L1372.92 1310.25L1368.88 1316.31L1348.09 1347.54L1339.53 1360.4ZM1338.14 1411.2L1317.91 1441.59H1345.14C1344.08 1431.24 1341.77 1421.01 1338.14 1411.2ZM1345.83 1468.59H1299.93L1293.38 1478.42L1345.83 1510.11V1468.59ZM1311.42 1520.87L1278.41 1500.92L1265.34 1520.54C1267.3 1520.87 1269.33 1521.08 1271.43 1521.14L1311.42 1520.87ZM1264.09 1548.19C1266.61 1548.42 1269.31 1548.45 1272.15 1548.14L1345.83 1547.64V1878.89C1237.24 1872.26 1157.84 1823.98 1103.46 1763.66L1246.85 1548.31L1264.09 1548.19ZM1241.63 1507.43L1255.27 1486.94L1230.66 1472.07C1230.64 1475.25 1230.61 1478.01 1230.57 1480.3V1481.44C1230.74 1489.98 1234.62 1499.73 1241.63 1507.43ZM1203.57 1480.63C1203.57 1480.41 1203.57 1480.19 1203.57 1479.97C1203.66 1474.48 1203.71 1466.15 1203.73 1455.79L1081.41 1381.87C1043.61 1418.65 1017.95 1470.8 1011.41 1522.92L1203.57 1521.61V1481.57C1203.57 1481.26 1203.57 1480.94 1203.57 1480.63ZM1214.26 1548.53L1009.76 1549.93C1010.12 1598.85 1033.53 1675.06 1085.41 1742.06L1214.26 1548.53ZM1372.83 1879.67V1557.98L1712.04 1762.96C1609.77 1838.27 1486.52 1879.38 1372.83 1879.67ZM1734.93 1745.25L1372.83 1526.43V1468.59V1455.09V1359.11L1387.32 1337.35L1920.16 1341L1920.21 1341H1920.25H1936.75C1932.63 1513.56 1849.75 1651.86 1734.93 1745.25ZM934.9 209.654L927.972 185.779L911.72 204.589C888.543 231.414 871.329 266.832 862.621 299.374C858.257 315.686 855.896 331.761 856.197 346.076C856.492 360.104 859.38 374.021 867.116 384.465C879.534 401.23 895.481 411.556 907.97 417.652C912.389 419.809 916.446 421.471 919.87 422.725C917 478.679 900.163 538.615 881.243 590.916C880.703 584.583 880.653 577.689 881.091 570.401C882.338 549.655 887.375 528.497 893.191 513.905C902.066 491.636 894.263 464.743 882.341 441.898C870.001 418.253 851.233 395.002 831.928 377.93L817.603 365.262L810.461 383.001C794.469 422.724 786.711 457.421 794.902 497.314C802.789 535.731 825.168 577.408 865.315 632.324C855.741 655.901 846.568 676.541 839.327 692.834L839.28 692.94L839.278 692.944C835.35 701.783 831.933 709.47 829.378 715.566C827.508 720.029 825.736 724.464 824.671 728.122C822.464 725.81 820.255 723.406 818.084 720.938C810.878 712.746 804.35 704.138 799.698 696.064C794.869 687.683 792.905 681.313 792.905 677.223C792.905 657.942 791.298 622.212 786.299 570.558C781.613 522.14 777.367 482.504 744.747 432.345C780.266 406.034 799.995 380.323 809.238 350.314C819.109 318.261 816.335 282.993 812.313 241.481L809.814 215.683L790.108 232.518C758.747 259.309 736.019 283.593 723.029 314.549C719.697 322.489 717.051 330.756 715.047 339.483C700.791 300.279 683.519 273.575 654.96 249.284L634.878 232.202L632.757 258.482C629.475 299.156 630.158 331.626 639.236 358.733C642.669 368.983 647.236 378.284 653.021 386.865C650.575 385.022 648.158 383.278 645.762 381.625C622.785 365.769 602.336 358.69 578.221 352.828L551.197 346.258L562.752 371.555L564.235 374.801C579.101 407.353 592.357 436.381 605.464 457.937C608.602 463.099 611.813 467.972 615.128 472.461C606.079 461.965 595.637 451.569 583.608 441.674L560.492 422.661L561.54 452.573C564.107 525.871 572.061 566.585 603.346 634.244L603.854 635.343L604.55 636.335C605.356 637.483 606.243 638.475 607.18 639.331C607.324 639.481 607.477 639.641 607.639 639.809C607.757 639.931 607.881 640.059 608.009 640.191C609.483 641.71 611.606 643.842 614.273 646.377C619.59 651.428 627.158 658.161 636.136 664.833C653.311 677.595 678.765 692.524 704.493 690.689C714.329 689.987 721.935 684.632 727.381 678.038C732.699 671.597 736.572 663.318 739.468 654.553C745.28 636.958 748.21 614.121 748.925 590.624C749.646 566.965 748.144 541.793 744.639 519.18C741.183 496.876 735.595 475.83 727.471 461.202L726.785 459.967L725.857 458.9C716.143 447.725 707.172 437.791 698.773 428.939C704.45 432.512 710.515 436.002 716.978 439.446C750.624 487.69 754.589 523.193 759.425 573.159C764.375 624.317 765.905 659.116 765.905 677.223C765.905 688.38 770.645 699.722 776.303 709.543C782.139 719.672 789.881 729.756 797.811 738.771C805.775 747.825 814.186 756.092 821.574 762.588C828.071 768.3 834.659 773.432 839.759 776.185C862.529 792.76 879.354 812.191 893.149 839.676C913.612 880.445 927.5 938.996 942.932 1032.82L969.574 1028.44C955.114 940.521 941.565 880.165 921.308 835.962C921.985 835.186 922.704 834.353 923.461 833.465C928.455 827.61 935.133 819.328 941.837 809.635C954.726 791.001 969.753 764.322 969.753 738.922C969.753 716.241 963.751 686.71 958.103 663.712C955.233 652.029 952.367 641.69 950.218 634.27C949.142 630.557 948.244 627.567 947.611 625.494C947.295 624.458 947.045 623.651 946.872 623.097C946.785 622.82 946.718 622.607 946.672 622.459L946.618 622.289L946.603 622.241L946.599 622.227L946.597 622.223C946.597 622.221 946.596 622.22 933.732 626.313L946.596 622.22L937.53 593.726L922.154 619.371C905.985 646.336 893.681 670.179 888.013 702.999C884.302 724.483 883.503 749.392 885.83 781.167C876.61 771.07 866.348 762.069 854.819 753.754C854.743 753.691 854.556 753.53 854.297 753.271C853.734 752.708 852.897 751.748 852.111 750.389C850.671 747.903 848.999 743.452 850.448 736.207C850.45 736.2 850.465 736.129 850.503 735.984C850.545 735.826 850.606 735.61 850.692 735.33C850.866 734.763 851.114 734.029 851.451 733.106C852.128 731.25 853.069 728.894 854.28 726.002C856.708 720.207 860.006 712.786 864 703.8L864.034 703.724C871.971 685.865 882.418 662.36 893.188 635.389C918.156 572.857 945.484 490.223 947.213 413.911C953.27 367.192 955.104 332.746 952.912 301.552C950.703 270.109 944.44 242.533 934.9 209.654ZM925.979 303.445C927.755 328.723 926.711 356.932 922.379 394.596C921.545 394.218 920.689 393.816 919.813 393.388C909.78 388.491 897.843 380.586 888.812 368.394C885.824 364.36 883.431 356.927 883.191 345.509C882.957 334.378 884.809 320.909 888.704 306.353C894.298 285.445 903.835 263.295 916.197 243.844C921.275 264.378 924.549 283.102 925.979 303.445ZM868.109 503.908C861.301 520.991 855.728 544.515 854.208 567.694C836.074 537.885 825.832 513.713 821.35 491.883C815.854 465.116 818.81 440.806 828.382 412.272C840.071 424.987 850.755 439.733 858.404 454.39C869.522 475.695 872.389 493.172 868.109 503.908ZM783.434 342.366C777.078 363.003 764.037 382.441 737.618 403.747C735.831 369.802 739.338 345.461 747.926 324.997C755.915 305.957 768.706 289.281 787.792 270.928C789.906 299.78 789.645 322.198 783.434 342.366ZM658.047 290.469C678.675 315.279 691.357 346.811 705.34 400.912C683.698 385.79 671.495 370.033 664.838 350.158C659.536 334.326 657.504 315.184 658.047 290.469ZM670.611 585.393C669.566 574.417 659.317 528.732 623.348 482.496C624.619 483.876 625.907 485.196 627.214 486.451C635.061 493.985 644.213 499.761 654.951 501.552C673.657 504.672 691.477 498 703.455 491.782C705.723 490.604 707.852 489.406 709.815 488.235C713.07 497.83 715.86 509.779 717.958 523.315C721.198 544.224 722.61 567.735 721.938 589.803C721.261 612.034 718.493 631.97 713.83 646.083C711.489 653.171 708.929 657.979 706.562 660.845C704.323 663.557 702.989 663.727 702.573 663.757C687.294 664.847 668.781 655.452 652.24 643.161C649.914 641.433 647.688 639.693 645.584 637.984C650.147 635.415 654.507 632.114 658.062 628.121C670.718 613.908 671.899 598.916 670.611 585.393ZM691.014 467.818C692.607 466.991 694.118 466.148 695.53 465.316C668.122 434.631 648.094 416.039 630.427 403.847C619.931 396.604 610.115 391.513 599.776 387.507C610.19 409.97 619.477 429.013 628.534 443.91C634.76 454.15 640.495 461.772 645.914 466.975C651.292 472.139 655.714 474.306 659.393 474.92C669.524 476.61 680.952 473.042 691.014 467.818ZM626.242 617.03C625.899 617.127 625.577 617.211 625.276 617.282C602.705 567.443 594.008 533.589 590.306 485.17C632.324 531.189 643.015 580.414 643.733 587.953C644.642 597.497 643.626 603.733 637.898 610.166C635.346 613.032 630.733 615.749 626.242 617.03ZM622.15 617.651C622.151 617.65 622.183 617.653 622.242 617.664C622.179 617.658 622.149 617.653 622.15 617.651ZM919.631 794.276C917.997 796.638 916.362 798.912 914.754 801.08C910.287 759.41 910.639 730.637 914.619 707.594C917.586 690.412 922.626 676.06 929.697 661.504C930.417 664.278 931.15 667.171 931.882 670.153C937.495 693.003 942.753 719.776 942.753 738.922C942.753 755.347 932.261 776.017 919.631 794.276ZM451.34 385.094L426.954 371.078L431.273 398.872C439.368 450.961 447.93 489.94 462.488 520.434C477.021 550.875 497.255 572.344 527.278 590.509C535.717 601.692 542.465 610.142 548.025 616.987C549.774 619.139 551.375 621.097 552.858 622.909L552.862 622.915C556.471 627.327 559.375 630.878 561.989 634.284C568.801 643.161 573.177 650.446 579.973 667.209C587.382 685.485 588.706 690.08 588.719 695.24C588.726 698.125 588.295 701.517 587.287 707.774C587.121 708.805 586.942 709.898 586.752 711.057C585.83 716.697 584.649 723.915 583.4 733.33C580.327 756.477 579.312 793.521 578.751 826.812C578.608 835.309 578.494 843.526 578.387 851.239L578.385 851.354C578.242 861.651 578.112 871.047 577.942 879.009C577.235 878.068 576.506 877.086 575.754 876.063C567.858 865.321 559.086 852.355 549.818 838.656L549.807 838.64C544.169 830.305 538.347 821.7 532.428 813.159C538.676 806.44 543.671 802.621 548.102 799.233C548.796 798.702 549.477 798.181 550.146 797.662C553.472 795.082 557.307 791.954 560.644 787.484C564.071 782.894 566.465 777.605 568.261 771.065C576.024 742.806 566.92 710.987 518.659 653.46L505.759 638.084L496.381 655.828C482.346 682.382 478.669 704.836 481.477 730.152C481.718 732.325 482.008 734.523 482.344 736.749C481.13 734.772 479.94 732.83 478.772 730.924L478.741 730.873C472.037 719.934 466.076 710.206 460.802 702.167C452.378 689.326 439.901 677.748 430.165 669.709C427.66 667.641 425.279 665.76 423.117 664.103C444.94 632.706 456.959 604.78 457.273 575.633C457.623 543.297 443.525 512.219 419.101 476.153L404.782 455.008L395.373 478.748C381.8 512.994 375.458 541.454 375.391 571.539C375.385 574.184 375.428 576.834 375.518 579.496C373.73 577.758 371.888 576.095 369.988 574.505C348.138 556.223 320.556 549.231 286.881 544.277L268.82 541.62L271.57 559.667C276.852 594.324 286.281 620.907 307.637 640.714C327.894 659.5 357.147 670.516 397.892 679.138C398.007 679.216 398.134 679.303 398.274 679.398C399.052 679.932 400.205 680.736 401.646 681.776C404.534 683.861 408.542 686.869 412.974 690.529C422.052 698.025 432.042 707.55 438.226 716.977C442.715 723.82 448.265 732.865 454.704 743.358L454.704 743.358C467.975 764.986 485.021 792.766 504.33 820.094C511.518 830.268 519.244 841.672 526.843 852.888L526.845 852.89C536.571 867.245 546.088 881.292 553.998 892.054C560.978 901.55 568.04 910.408 574.067 915.287C575.673 916.587 577.722 918.039 580.118 919.104C582.404 920.119 586.333 921.368 590.958 920.316C596.16 919.133 599.571 915.683 601.428 912.305C603.08 909.3 603.642 906.198 603.871 903.915C604.795 894.736 605.08 874.037 605.408 850.187V850.186C605.51 842.767 605.617 835.044 605.748 827.267C606.315 793.587 607.336 758.19 610.165 736.883C611.357 727.905 612.466 721.118 613.386 715.49C613.511 714.725 613.633 713.981 613.751 713.256C613.816 712.855 613.88 712.459 613.943 712.069C614.921 705.998 615.733 700.553 615.719 695.17C615.69 683.794 611.914 674.131 604.995 657.065C597.462 638.485 591.959 628.99 583.41 617.848C580.523 614.085 577.221 610.049 573.476 605.471C572.043 603.719 570.546 601.887 568.981 599.962C564.013 593.846 558.098 586.447 550.825 576.879C560.272 523.549 556.596 486.349 538.714 456.694C520.623 426.695 489.244 406.879 451.34 385.094ZM515.592 470.637C527.316 490.078 532.163 515.895 526.538 557.52C508.79 544.186 496.442 528.886 486.854 508.801C476.624 487.374 469.366 460.177 462.713 423.286C487.625 438.874 504.88 452.873 515.592 470.637ZM576.987 901.363C576.986 901.361 576.99 901.33 577.001 901.272C576.993 901.336 576.987 901.365 576.987 901.363ZM531.639 777.832C528.913 779.915 525.672 782.391 521.932 785.703C515.111 761.501 510.13 743.564 508.313 727.176C506.809 713.619 507.543 701.385 511.826 688.047C545.433 731.969 545.763 751.037 542.226 763.912C541.09 768.048 539.955 770.063 539.008 771.333C537.97 772.722 536.586 774.01 533.597 776.328C532.984 776.804 532.34 777.296 531.664 777.813L531.639 777.832ZM430.275 575.341C430.083 593.138 424.044 611.678 410.452 634.115C405.136 610.325 402.349 590.53 402.391 571.599C402.432 553.133 405.171 535.082 411.341 514.64C424.544 538.009 430.472 557.089 430.275 575.341ZM352.661 595.213C365.187 605.693 375.58 621.657 384.85 648.36C356.364 640.948 338.246 632.277 325.997 620.917C314.323 610.09 306.84 595.73 301.786 574.195C324.315 578.683 340.168 584.759 352.661 595.213ZM413.964 693.394C371.193 671.991 338.336 660.598 306.89 660.836C275.087 661.077 246.755 673.182 213.061 693.979L195.785 704.642L212.301 716.449C242.814 738.262 269.208 751.868 298.021 754.341C284.29 755.592 270.07 757.666 255.002 760.235L228.152 764.813L248.055 783.407C288.289 820.997 322.715 848.957 360.055 860.36C395.351 871.139 431.382 866.683 474.686 846.53C486.108 869.29 494.291 893.074 499.095 912.623C501.902 924.045 503.463 933.65 503.924 940.497C503.99 941.485 504.031 942.379 504.052 943.183C499.398 943.296 492.947 942.982 485.031 942.273C469.012 940.837 448.485 937.925 428.046 934.634C407.667 931.353 387.623 927.736 372.657 924.935C366.005 923.69 360.366 922.608 356.156 921.791C325.245 877.278 295.525 851.328 258.954 844.459C221.807 837.482 181.238 851.033 131.41 875.107L102.502 889.074L132.705 899.962C188.502 920.078 228.313 933.285 274.608 940.772C230.099 937.807 194.858 946.967 133.3 965.974L100.601 976.07L131.387 991.017C172.917 1011.18 207.49 1023.7 243.025 1022.9C277.541 1022.12 311.037 1008.86 351.236 982.229L380.399 987.746C372.841 989.898 365.461 992.301 358.13 995.002C330.037 1005.35 303.206 1019.87 270.198 1040.51L245.468 1055.97L273.263 1064.82L277.356 1051.95C273.263 1064.82 273.266 1064.82 273.27 1064.82L273.279 1064.82L273.304 1064.83L273.38 1064.86L273.501 1064.89L273.637 1064.94C273.854 1065 274.163 1065.1 274.557 1065.22C275.346 1065.45 276.483 1065.79 277.932 1066.2C280.829 1067.02 284.984 1068.14 290.123 1069.37C300.38 1071.83 314.665 1074.76 330.756 1076.65C362.138 1080.32 403.665 1080.43 434.708 1061.72C463.048 1044.65 477.576 1028.7 484.846 1015.73C486.935 1012.01 488.401 1008.57 489.415 1005.48C495.535 1005.35 503.612 1005.38 512.025 1005.97C520.787 1006.59 529.406 1007.78 536.406 1009.8C543.915 1011.96 547.136 1014.4 548.089 1015.72C555.904 1026.51 590.481 1068.41 630.486 1112.63C670.191 1156.52 716.814 1204.48 748.819 1226.6C769.181 1241.8 788.413 1253.42 803.668 1262.63C808.016 1265.25 812.041 1267.68 815.676 1269.94C824.196 1275.24 830.074 1279.31 833.783 1282.8C836.202 1285.08 836.843 1286.31 836.988 1286.67C837.009 1297.26 838.032 1311.64 839.234 1327.5C839.389 1329.54 839.546 1331.6 839.706 1333.69C840.819 1348.26 842.033 1364.15 842.877 1380.38C844.835 1418.03 844.628 1455.22 837.515 1479.9C829.067 1509.21 830.477 1526.69 833.622 1541.29C834.242 1544.16 834.853 1546.7 835.414 1549.04L835.416 1549.04L835.416 1549.04C836.733 1554.52 837.775 1558.86 838.003 1563.63C766.985 1567.78 712.947 1601.08 637.828 1672.82L459.041 1707.09L464.124 1733.6L646.828 1698.59L650.757 1697.83L653.641 1695.06C732.942 1618.85 782.836 1591 850.646 1590.2L861.778 1590.07L863.77 1579.12C866.714 1562.92 863.773 1551.03 861.361 1541.27C860.874 1539.3 860.408 1537.41 860.016 1535.6C857.789 1525.26 856.273 1512.31 863.459 1487.37C871.981 1457.8 871.786 1416.37 869.841 1378.98C868.979 1362.4 867.738 1346.16 866.626 1331.61C866.467 1329.53 866.31 1327.47 866.157 1325.46C864.924 1309.19 863.993 1295.8 863.987 1286.42C863.981 1276.23 858.041 1268.56 852.289 1263.14C846.42 1257.62 838.461 1252.32 829.941 1247.02C825.877 1244.49 821.554 1241.88 817.002 1239.13L816.997 1239.13C801.792 1229.94 784.027 1219.21 764.778 1204.82L764.57 1204.67L764.356 1204.52C735.345 1184.53 690.613 1138.85 650.508 1094.52C610.613 1050.42 576.865 1009.42 569.96 999.884C563.553 991.034 552.96 986.471 543.888 983.855C534.308 981.092 523.58 979.718 513.915 979.04C504.154 978.356 494.957 978.347 488.237 978.504C484.864 978.583 482.082 978.704 480.127 978.807C479.847 978.822 479.584 978.836 479.338 978.85C479.144 978.861 478.961 978.871 478.789 978.882L456.177 974.604L350.819 954.671L287.378 942.669C305.803 945.166 325.501 946.824 347.772 947.712L348.074 947.724C348.521 947.812 348.994 947.904 349.49 948.001C353.871 948.854 360.137 950.061 367.69 951.474C382.787 954.299 403.072 957.961 423.754 961.291C444.376 964.611 465.645 967.644 482.621 969.165C491.062 969.921 498.82 970.34 505.056 970.166C508.148 970.079 511.276 969.838 514.109 969.283C516.383 968.837 520.828 967.785 524.442 964.496C527.089 962.087 528.461 959.256 529.202 957.261C529.981 955.164 530.41 953.041 530.663 951.15C531.169 947.376 531.159 943.085 530.863 938.684C530.264 929.788 528.357 918.559 525.315 906.179C519.22 881.38 508.2 850.469 492.252 822.047C485.13 809.353 478.665 797.074 472.949 786.217C472.022 784.456 471.114 782.732 470.227 781.05C464.079 769.398 458.497 758.954 454.222 752.837C446.751 742.144 442.034 733.55 437.631 725.529L437.618 725.505C437.074 724.514 436.535 723.532 435.997 722.556C431.087 713.662 426.046 704.972 417.726 696.185L416.091 694.458L413.964 693.394ZM369.448 757.474C355.456 754.529 341.643 753.184 327.576 753.044C350.791 749.172 375.499 738.789 404.641 722.785C407.272 726.567 409.644 730.685 412.359 735.604C412.874 736.537 413.4 737.496 413.94 738.481L413.953 738.504C418.369 746.557 423.743 756.356 432.09 768.302C434.597 771.89 438.172 778.287 442.909 787.165C416.872 771.942 393.178 762.469 369.448 757.474ZM307.095 687.835C326.892 687.685 348.781 693.344 378.099 706.286C348.501 721.316 326.664 727.862 307.075 727.747C287.742 727.634 269.028 721.004 245.564 706.313C268.761 693.82 287.536 687.983 307.095 687.835ZM363.886 783.895C390.86 789.573 418.972 802.183 453.929 826.195C419.335 840.662 392.795 842.127 367.941 834.537C342.77 826.85 317.827 809.508 287.35 782.663C315.736 779.107 339.744 778.813 363.886 783.895ZM509.367 942.674C509.376 942.676 509.299 942.703 509.117 942.744C509.269 942.692 509.358 942.672 509.367 942.674ZM253.97 870.995C275.981 875.129 296.82 889.163 320.572 919.07C266.367 914.738 227.261 904.364 173.466 885.763C207.162 871.914 232.305 866.926 253.97 870.995ZM275.559 967.912L311.635 974.737C285.34 989.141 263.561 995.432 242.416 995.909C221.948 996.371 201.017 991.428 175.952 981.405C217.156 969.708 243.405 965.392 275.559 967.912ZM367.463 1020.34C392.486 1011.12 418.567 1005.53 453.17 1001.51L461.027 1003C456.512 1010.81 445.85 1023.49 420.776 1038.6C397.891 1052.38 364.225 1053.38 333.896 1049.83C326.268 1048.94 319.057 1047.78 312.556 1046.56C332.329 1035.29 349.765 1026.86 367.463 1020.34ZM837.021 1286.77C837.023 1286.78 837.024 1286.78 837.025 1286.78C837.025 1286.78 837.025 1286.78 837.022 1286.77C837.02 1286.76 837.018 1286.75 837.014 1286.74C837.017 1286.76 837.02 1286.77 837.021 1286.77ZM652.234 681.371L633.804 672.378L632.829 692.862C626.136 833.438 632.948 931.53 665.894 1000.98C699.56 1071.96 759.363 1110.96 851.771 1136.54L869.208 1141.37L868.871 1123.28C868.47 1101.79 867.801 1081.37 866.81 1061.95C864.717 1020.91 861.182 984.238 855.675 951.245C844.365 883.48 824.668 830.808 791.655 787.435C758.666 744.093 713.207 711.125 652.234 681.371ZM690.289 989.413C662.015 929.809 653.909 843.921 658.895 715.037C707.968 741.033 743.804 769.148 770.17 803.787C787.844 827.007 801.558 853.548 812.046 885.033C785.288 846.774 764.237 819.137 746.624 799.607C720.874 771.056 700.448 757.486 677.947 755.478L661.71 754.029L663.312 770.25C667.765 815.361 682.388 849.597 704.916 875.275C726.965 900.407 755.725 916.362 787.378 926.779C793.502 930.783 797.396 934.774 802.385 939.887L802.386 939.888L802.388 939.89C803.329 940.854 804.309 941.858 805.35 942.91C811.435 949.057 818.581 955.615 830.096 962.203C832.399 976.92 834.325 992.465 835.917 1008.92C813.599 974.681 794.172 949.692 775.061 931.628C747.453 905.532 720.682 894.044 687.983 889.209L665.376 885.865L673.359 907.279C690.377 952.926 706.223 985.508 726.888 1008.63C747.739 1031.96 772.621 1044.73 805.584 1052.9L840.218 1071.01C840.729 1082.11 841.139 1093.56 841.458 1105.37C763.862 1081.15 717.364 1046.49 690.289 989.413ZM726.573 817.69C742.921 835.817 762.82 861.843 788.603 898.628C763.199 889.335 741.654 876.209 725.213 857.469C710.282 840.451 698.961 818.12 693.169 788.286C702.007 793.342 712.685 802.29 726.573 817.69ZM756.514 951.25C774.287 968.049 793.135 992.356 816.035 1027.89L815.169 1027.44L813.552 1027.05C783.506 1019.8 763.597 1009.19 747.019 990.636C733.086 975.047 720.929 953.234 707.808 921.298C724.938 926.805 740.303 935.927 756.514 951.25ZM846.613 1651.64C851.997 1652.74 859.53 1656.01 862.731 1664.02C876.116 1685.36 869.821 1710.76 860.993 1729.48C851.664 1749.25 837.116 1766.92 826.755 1775.42C826.765 1775.41 826.773 1775.41 826.778 1775.4C826.784 1775.4 826.787 1775.4 826.787 1775.4C826.801 1775.41 825.936 1776.33 824.633 1779.28C823.292 1782.32 821.946 1786.44 820.659 1791.54C818.091 1801.72 816.103 1814.39 814.605 1827.05C813.116 1839.63 812.153 1851.81 811.562 1860.89C811.267 1865.42 811.067 1869.15 810.94 1871.74C810.905 1872.45 810.875 1873.08 810.851 1873.62C810.832 1874.05 810.816 1874.41 810.803 1874.72L810.786 1875.11L810.772 1875.48L810.764 1875.67L810.763 1875.71L810.763 1875.72L810.763 1875.72C810.763 1875.72 810.763 1875.72 808.542 1875.64C806.71 1875.57 803.369 1875.45 797.272 1875.23C790.2 1874.97 786.835 1874.85 785.234 1874.79C783.781 1874.73 783.781 1874.73 783.781 1874.73L783.781 1874.73L783.781 1874.71L783.784 1874.65L783.793 1874.42C783.8 1874.23 783.812 1873.94 783.827 1873.58C783.858 1872.84 783.906 1871.77 783.972 1870.42C784.105 1867.7 784.314 1863.82 784.619 1859.13C785.229 1849.77 786.23 1837.07 787.792 1823.88C789.345 1810.76 791.496 1796.76 794.479 1784.94C795.968 1779.03 797.751 1773.32 799.933 1768.38C801.985 1763.73 804.989 1758.35 809.618 1754.56C816.659 1748.78 828.821 1734.39 836.574 1717.96C844.503 1701.15 845.634 1687.17 839.573 1677.93C837.98 1677.87 835.516 1678 832.068 1678.58C822.386 1680.21 809.07 1684.67 795.496 1691.19C781.946 1697.69 769.107 1705.79 760.037 1714.11C750.311 1723.03 747.822 1729.49 748.027 1732.8C748.824 1745.61 752.337 1756.66 756.576 1769.99C758.139 1774.9 759.801 1780.12 761.462 1785.86C767.426 1806.46 772.013 1830.42 766.886 1862.17L740.231 1857.87C744.514 1831.34 740.811 1811.62 735.527 1793.37C734.332 1789.24 732.974 1784.99 731.579 1780.61C727.039 1766.39 722.101 1750.92 721.079 1734.47C720.071 1718.25 730.814 1704.28 741.782 1694.21C753.407 1683.55 768.724 1674.09 783.809 1666.85C798.869 1659.62 814.666 1654.13 827.59 1651.95C833.898 1650.89 840.643 1650.42 846.613 1651.64ZM957.869 1743.14C954.019 1730.2 954.016 1730.2 954.012 1730.2L954.005 1730.2L953.988 1730.21L953.947 1730.22L953.833 1730.26L953.71 1730.29L953.481 1730.36C953.293 1730.42 953.059 1730.5 952.782 1730.59C952.637 1730.64 952.48 1730.69 952.311 1730.75C951.335 1731.07 949.974 1731.55 948.311 1732.18C944.997 1733.44 940.43 1735.35 935.301 1737.96C925.247 1743.09 912.07 1751.44 902.283 1763.85C897.352 1770.1 896.529 1777.86 896.684 1783.85C896.849 1790.21 898.202 1797.16 900.069 1804.05C903.82 1817.88 910.311 1833.76 917.05 1848.44C923.84 1863.23 931.118 1877.3 936.677 1887.65C939.462 1892.83 941.828 1897.1 943.503 1900.08C943.812 1900.63 944.097 1901.13 944.357 1901.59C944.803 1902.38 945.176 1903.04 945.466 1903.55C945.607 1903.79 945.728 1904 945.829 1904.18L945.997 1904.47L946.138 1904.72L946.177 1904.78L946.188 1904.8L946.191 1904.81C946.192 1904.81 946.193 1904.81 957.869 1898.03C969.545 1891.26 969.545 1891.26 969.545 1891.26L969.545 1891.26L969.539 1891.25L969.511 1891.2L969.392 1890.99C969.284 1890.8 969.121 1890.52 968.907 1890.15C968.479 1889.4 967.846 1888.29 967.044 1886.86C965.439 1884 963.154 1879.88 960.46 1874.86C955.06 1864.82 948.063 1851.28 941.588 1837.17C935.061 1822.96 929.296 1808.66 926.127 1796.98C924.534 1791.11 923.761 1786.47 923.675 1783.15C923.629 1781.37 923.789 1780.44 923.87 1780.09C930.224 1772.24 939.337 1766.21 947.569 1762.01C951.667 1759.92 955.317 1758.4 957.913 1757.42C959.206 1756.92 960.223 1756.57 960.886 1756.35C961.217 1756.24 961.459 1756.16 961.602 1756.11C961.673 1756.09 961.719 1756.08 961.739 1756.07L961.73 1756.07L961.725 1756.08C961.724 1756.08 961.722 1756.08 961.269 1754.56C960.797 1752.98 959.834 1749.74 957.869 1743.14ZM700.428 1847.49C703.604 1822.82 703.491 1802.2 698.764 1786.04C693.815 1769.12 683.667 1756.86 667.908 1750.83C653.17 1745.19 635.24 1745.7 615.562 1749.52C595.625 1753.38 572.155 1761 545.316 1771.41L555.081 1796.59C581.355 1786.39 603.09 1779.44 620.7 1776.02C638.568 1772.56 650.526 1773.09 658.263 1776.05C664.981 1778.62 669.898 1783.53 672.85 1793.62C676.025 1804.48 676.651 1820.72 673.649 1844.05L700.428 1847.49ZM887.297 1812.98C881.479 1809.84 875.115 1808.9 868.84 1810.45C862.931 1811.9 858.242 1815.28 854.713 1818.75C847.848 1825.51 842.751 1835.22 839.086 1843.76C835.28 1852.63 832.379 1861.79 830.448 1868.61C829.475 1872.04 828.729 1874.95 828.223 1877.02C827.97 1878.05 827.776 1878.88 827.643 1879.46C827.576 1879.75 827.525 1879.97 827.488 1880.14L827.446 1880.33L827.433 1880.39L827.429 1880.41L827.427 1880.41C827.426 1880.42 827.426 1880.42 840.618 1883.28C853.811 1886.15 853.811 1886.15 853.81 1886.15L853.814 1886.13L853.839 1886.02L853.9 1885.75L853.956 1885.51C854.063 1885.04 854.227 1884.34 854.448 1883.44C854.89 1881.63 855.554 1879.04 856.426 1875.96C858.187 1869.75 860.724 1861.81 863.898 1854.41C867.214 1846.68 870.642 1840.96 873.646 1838C874.166 1837.49 874.573 1837.16 874.863 1836.96C877.409 1838.48 880.412 1841.81 883.355 1847.84C886.349 1853.96 888.624 1861.53 890.29 1869.27C891.938 1876.94 892.888 1884.3 893.424 1889.78C893.69 1892.51 893.85 1894.74 893.943 1896.26C893.959 1896.52 893.973 1896.77 893.986 1896.99C894.008 1897.4 894.025 1897.73 894.036 1897.98C894.045 1898.17 894.05 1898.3 894.054 1898.39L894.057 1898.47L894.057 1898.48C894.057 1898.48 894.057 1898.47 907.55 1898.03C921.043 1897.6 921.043 1897.59 921.042 1897.59L921.042 1897.58L921.042 1897.56L921.04 1897.51L921.033 1897.34C921.028 1897.19 921.019 1896.99 921.008 1896.74C920.991 1896.39 920.969 1895.93 920.938 1895.38C920.924 1895.14 920.909 1894.89 920.893 1894.61C920.783 1892.81 920.598 1890.25 920.296 1887.16C919.694 1881 918.614 1872.57 916.687 1863.6C914.777 1854.72 911.933 1844.82 907.614 1835.98C903.386 1827.33 897.029 1818.22 887.297 1812.98Z" fill="#1A1A1A"/>
</svg>
