<svg width="3205" height="3205" viewBox="0 0 3205 3205" fill="none" xmlns="http://www.w3.org/2000/svg">
<g clip-path="url(#clip0_111_5)">
<path d="M2413.26 0H791.735C581.795 0.132664 380.491 83.59 232.04 232.04C83.59 380.491 0.132664 581.795 0 791.735V2413.26C0.132664 2623.21 83.59 2824.51 232.04 2972.96C380.491 3121.41 581.795 3204.87 791.735 3205H2413.26C2623.21 3204.87 2824.51 3121.41 2972.96 2972.96C3121.41 2824.51 3204.87 2623.21 3205 2413.26V791.735C3204.87 581.795 3121.41 380.491 2972.96 232.04C2824.51 83.59 2623.21 0.132664 2413.26 0ZM2901.03 2413.26C2900.76 2542.55 2849.29 2666.46 2757.87 2757.87C2666.46 2849.29 2542.55 2900.76 2413.26 2901.03H791.735C662.5 2900.76 538.642 2849.27 447.306 2757.84C355.97 2666.41 304.607 2542.5 304.475 2413.26V791.735C304.607 662.5 355.97 538.589 447.306 447.159C538.642 355.729 662.5 304.239 791.735 303.974H2413.26C2542.55 304.239 2666.46 355.713 2757.87 447.128C2849.29 538.544 2900.76 662.454 2901.03 791.735V2413.26Z" fill="#1A1A1A"/>
<path d="M1602.5 839.31C1451.55 839.31 1304 884.07 1178.49 967.93C1052.99 1051.79 955.168 1170.98 897.403 1310.44C839.639 1449.89 824.526 1603.35 853.973 1751.39C883.421 1899.44 956.108 2035.42 1062.84 2142.16C1169.58 2248.89 1305.56 2321.58 1453.61 2351.03C1601.65 2380.47 1755.11 2365.36 1894.56 2307.6C2034.01 2249.83 2153.21 2152.01 2237.07 2026.51C2320.93 1901 2365.69 1753.45 2365.69 1602.5C2365.69 1400.09 2285.28 1205.97 2142.16 1062.84C1999.03 919.717 1804.91 839.31 1602.5 839.31ZM1602.5 2061.72C1511.68 2061.72 1422.89 2034.78 1347.37 1984.32C1271.85 1933.87 1213 1862.15 1178.24 1778.23C1143.48 1694.32 1134.39 1601.99 1152.11 1512.91C1169.83 1423.83 1213.56 1342.01 1277.78 1277.79C1342.01 1213.56 1423.83 1169.83 1512.91 1152.11C1601.99 1134.39 1694.32 1143.48 1778.23 1178.24C1862.15 1213 1933.86 1271.86 1984.32 1347.37C2034.78 1422.89 2061.72 1511.68 2061.72 1602.5C2061.58 1724.25 2013.16 1840.98 1927.07 1927.07C1840.98 2013.16 1724.25 2061.58 1602.5 2061.72Z" fill="#1A1A1A"/>
<path d="M2396.74 604.443C2356.43 604.443 2317.02 616.397 2283.5 638.792C2249.99 661.188 2223.86 693.02 2208.44 730.263C2193.01 767.506 2188.97 808.487 2196.84 848.024C2204.7 887.561 2224.11 923.878 2252.62 952.382C2281.12 980.886 2317.44 1000.3 2356.98 1008.16C2396.51 1016.03 2437.49 1011.99 2474.74 996.564C2511.98 981.138 2543.81 955.014 2566.21 921.496C2588.6 887.978 2600.56 848.572 2600.56 808.261C2600.56 754.205 2579.08 702.363 2540.86 664.14C2502.64 625.917 2450.79 604.443 2396.74 604.443Z" fill="#1A1A1A"/>
</g>
<defs>
<clipPath id="clip0_111_5">
<rect width="3205" height="3205" fill="white"/>
</clipPath>
</defs>
</svg>
