<svg id="Layer_1" data-name="Layer 1" xmlns="http://www.w3.org/2000/svg" viewBox="0 0 72.27 72.27"><defs><style>.cls-1{fill:#fff;}.cls-1,.cls-2{stroke:#fff;}.cls-1,.cls-2,.cls-3{stroke-miterlimit:10;}.cls-2{fill:none;stroke-width:5px;}.cls-3{stroke:#1a1a1a;stroke-width:0.75px;}</style></defs><title>lb_center mas</title><g id="Layer_2" data-name="Layer 2"><g id="Layer_1-2" data-name="Layer 1-2"><path class="cls-1" d="M36.14.5A35.64,35.64,0,1,0,71.77,36.14,35.67,35.67,0,0,0,36.14.5Z"/></g></g><line class="cls-2" x1="15.88" y1="56.41" x2="56.32" y2="15.87"/><path class="cls-3" d="M27,52.88a2.19,2.19,0,0,1-2.21-2.21,2.18,2.18,0,0,1,.08-.57l1.21-4.51a.34.34,0,0,1,.42-.24.34.34,0,0,1,.24.42l-1.21,4.5a1.83,1.83,0,0,0-.05.4,1.51,1.51,0,0,0,1.13,1.47,1.31,1.31,0,0,0,.39,0,1.53,1.53,0,0,0,1.48-1.13L36,22.85a5.17,5.17,0,0,1-2.81-1.32l-5.3,19.81a.34.34,0,0,1-.42.24.34.34,0,0,1-.25-.41h0l5.46-20.38a.36.36,0,0,1,.26-.26.37.37,0,0,1,.34.12,4.49,4.49,0,0,0,3.17,1.56.38.38,0,0,1,.26.14.37.37,0,0,1,.06.29L29.14,51.24A2.21,2.21,0,0,1,27,52.88Zm0-9.07h-.09a.34.34,0,0,1-.24-.42.35.35,0,0,1,.42-.25.37.37,0,0,1,.21.16.3.3,0,0,1,0,.26A.34.34,0,0,1,27,43.81Z"/><path class="cls-3" d="M46.44,52.88a2.21,2.21,0,0,1-2.14-1.64L36.63,22.63a.31.31,0,0,1,.06-.29A.33.33,0,0,1,37,22.2a4.52,4.52,0,0,0,3.17-1.55.35.35,0,0,1,.34-.11.33.33,0,0,1,.26.25v0l5.45,20.35h0a.34.34,0,0,1,0,.26.32.32,0,0,1-.2.16h-.09a.35.35,0,0,1-.34-.25l-5.3-19.79a5.22,5.22,0,0,1-2.81,1.3L45,51.06a1.53,1.53,0,0,0,1.48,1.13,1.31,1.31,0,0,0,.39,0A1.51,1.51,0,0,0,48,50.66a1.74,1.74,0,0,0-.05-.39l-1.21-4.5a.35.35,0,0,1,.67-.18l1.2,4.51a2.1,2.1,0,0,1,.08.56,2.19,2.19,0,0,1-2.21,2.22Zm0-9.07a.35.35,0,0,1-.09-.68.35.35,0,0,1,.42.25.34.34,0,0,1,0,.26.37.37,0,0,1-.21.16Z"/><path class="cls-3" d="M36.73,22.89a5.16,5.16,0,0,1-2-.4,5.23,5.23,0,0,1-1.64-1.11,5.18,5.18,0,0,1,0-7.32A5.23,5.23,0,0,1,34.71,13a5.16,5.16,0,0,1,2-.4h0a5.16,5.16,0,0,1,4.76,3.16,5.19,5.19,0,0,1-2.75,6.78A5.15,5.15,0,0,1,36.73,22.89Zm0-9.66a4.48,4.48,0,0,0-3.17,7.66,4.49,4.49,0,0,0,6.34,0,4.49,4.49,0,0,0-3.17-7.66Z"/><path class="cls-3" d="M36.73,20.31h0a2.59,2.59,0,1,1,0-5.18h0a2.59,2.59,0,0,1,0,5.18Zm0-4.5a1.91,1.91,0,1,0,1.9,1.91,1.92,1.92,0,0,0-1.9-1.91Z"/><path class="cls-3" d="M38,13.41l-.09,0a5.16,5.16,0,0,0-1.18-.16,4.68,4.68,0,0,0-1.19.16.36.36,0,0,1-.3-.05.37.37,0,0,1-.13-.28V9.86a1.62,1.62,0,0,1,1.62-1.62h0a1.63,1.63,0,0,1,1.62,1.62v3.2a.35.35,0,0,1-.14.28A.38.38,0,0,1,38,13.41ZM36.73,8.93a.94.94,0,0,0-.94.93v2.77a5.34,5.34,0,0,1,1.87,0V9.86a.93.93,0,0,0-.93-.93Z"/><path class="cls-3" d="M25.34,57.27h-.09A.34.34,0,0,1,25,57.1a.39.39,0,0,1,0-.26l1.18-4.45a.34.34,0,1,1,.66.17L25.67,57A.33.33,0,0,1,25.34,57.27Z"/><path class="cls-3" d="M48.1,57.27a.33.33,0,0,1-.33-.25l-1.18-4.46a.34.34,0,0,1,0-.26.37.37,0,0,1,.21-.16h.09a.34.34,0,0,1,.33.26l1.18,4.45a.39.39,0,0,1,0,.26.36.36,0,0,1-.21.16Z"/><path class="cls-3" d="M55.52,44.88H46.73a.35.35,0,0,1-.35-.35.35.35,0,0,1,.35-.34h8.79a.35.35,0,0,1,.35.34A.35.35,0,0,1,55.52,44.88Zm-12.66,0H38.19a.35.35,0,0,1-.34-.35.34.34,0,0,1,.34-.34h4.67a.34.34,0,0,1,.34.34A.35.35,0,0,1,42.86,44.88Z"/><path class="cls-3" d="M35.57,44.88h-5a.35.35,0,0,1-.34-.35.34.34,0,0,1,.34-.34h5a.34.34,0,0,1,.34.34A.35.35,0,0,1,35.57,44.88Zm-8.86,0H18.76a.35.35,0,0,1-.34-.35.34.34,0,0,1,.34-.34h8a.35.35,0,0,1,.35.34A.35.35,0,0,1,26.71,44.88Z"/><path class="cls-3" d="M57,45.61H55.52a.31.31,0,0,1-.24-.1.35.35,0,0,1-.1-.24V43.8a.35.35,0,0,1,.1-.24.31.31,0,0,1,.24-.1H57a.31.31,0,0,1,.24.1.32.32,0,0,1,.11.24v1.47a.32.32,0,0,1-.11.24A.31.31,0,0,1,57,45.61Zm-1.12-.69h.78v-.78h-.78Z"/><path class="cls-3" d="M38.19,46.19H35.57a.39.39,0,0,1-.25-.1.35.35,0,0,1-.1-.24V43.22a.34.34,0,0,1,.35-.34h2.62a.31.31,0,0,1,.24.1.32.32,0,0,1,.11.24v2.63a.32.32,0,0,1-.11.24A.31.31,0,0,1,38.19,46.19Zm-2.28-.69h1.94V43.56H35.91Z"/><path class="cls-3" d="M35.57,44.8h0A10,10,0,0,1,30.88,43a.34.34,0,0,1-.08-.48.36.36,0,0,1,.48-.08,9.28,9.28,0,0,0,3.94,1.65v-.84a.34.34,0,0,1,.35-.34h2.62a.31.31,0,0,1,.24.1.32.32,0,0,1,.11.24V44a9.26,9.26,0,0,0,3.64-1.55.37.37,0,0,1,.48.08.35.35,0,0,1-.08.48,10.13,10.13,0,0,1-2,1.12,9.66,9.66,0,0,1-2.3.62.3.3,0,0,1-.27-.08.34.34,0,0,1-.12-.26v-.87H35.91v.9a.34.34,0,0,1-.12.26A.35.35,0,0,1,35.57,44.8Zm9.78-5.07a.33.33,0,0,1-.17,0,.32.32,0,0,1-.16-.2.33.33,0,0,1,0-.26,9.42,9.42,0,0,0,1.1-4.41h0a.35.35,0,0,1,.35-.35.35.35,0,0,1,.34.35,9.86,9.86,0,0,1-.31,2.48,10.08,10.08,0,0,1-.87,2.25A.35.35,0,0,1,45.35,39.73ZM28.13,39.6a.35.35,0,0,1-.31-.18,10.1,10.1,0,0,1-1.11-4.6.35.35,0,0,1,.34-.35.35.35,0,0,1,.35.35,9.32,9.32,0,0,0,1,4.28.34.34,0,0,1,0,.26.35.35,0,0,1-.17.21A.4.4,0,0,1,28.13,39.6Z"/><path class="cls-3" d="M47.29,35.16H45.68a.34.34,0,0,1-.34-.34V33.21a.34.34,0,0,1,.34-.34h1.61a.34.34,0,0,1,.34.34v1.61a.34.34,0,0,1-.34.34ZM46,34.47H47v-.92H46Z"/><path class="cls-3" d="M27.86,35.16H26.25a.34.34,0,0,1-.34-.34V33.21a.34.34,0,0,1,.34-.34h1.61a.34.34,0,0,1,.34.34v1.61a.34.34,0,0,1-.34.34Zm-1.27-.69h.92v-.92h-.92Z"/><path class="cls-3" d="M18.76,45.61H17.29a.31.31,0,0,1-.24-.1.35.35,0,0,1-.1-.24V43.8a.35.35,0,0,1,.1-.24.31.31,0,0,1,.24-.1h1.47a.34.34,0,0,1,.34.34v1.47a.34.34,0,0,1-.34.34Zm-1.12-.69h.78v-.78h-.78Z"/><path class="cls-3" d="M49.14,60.1H24a.35.35,0,0,1-.35-.34.35.35,0,0,1,.35-.35H49.14a.35.35,0,0,1,.34.35A.34.34,0,0,1,49.14,60.1Z"/><path class="cls-3" d="M55.49,60.1h-2.9a.35.35,0,0,1-.35-.34.35.35,0,0,1,.35-.35h2.9a.35.35,0,0,1,.34.35A.34.34,0,0,1,55.49,60.1Z"/><path class="cls-3" d="M20.55,60.1h-2.9a.34.34,0,0,1-.34-.34.35.35,0,0,1,.34-.35h2.9a.35.35,0,0,1,.35.35A.35.35,0,0,1,20.55,60.1Z"/><path class="cls-3" d="M47.75,48.7a.33.33,0,0,1-.24-.1.34.34,0,0,1,0-.48,14.81,14.81,0,0,0,4.17-10.33h0a.34.34,0,1,1,.68,0,15.35,15.35,0,0,1-1.16,5.92A15.65,15.65,0,0,1,48,48.6.39.39,0,0,1,47.75,48.7Z"/><path class="cls-3" d="M25.71,48.62a.36.36,0,0,1-.25-.11,15.5,15.5,0,0,1-4.27-10.72.35.35,0,0,1,.34-.35.35.35,0,0,1,.35.35A14.86,14.86,0,0,0,26,48a.35.35,0,0,1,.1.24.41.41,0,0,1-.11.24A.37.37,0,0,1,25.71,48.62Z"/><path class="cls-3" d="M36.77,53.37h0a15.52,15.52,0,0,1-4.25-.59,14.94,14.94,0,0,1-3.8-1.65.34.34,0,0,1-.12-.47.32.32,0,0,1,.29-.17.35.35,0,0,1,.18,0,14.91,14.91,0,0,0,15.31.05h0a.39.39,0,0,1,.18,0,.37.37,0,0,1,.3.16.36.36,0,0,1-.13.48,15.49,15.49,0,0,1-8,2.18Z"/></svg>