<svg id="Layer_1" data-name="Layer 1" xmlns="http://www.w3.org/2000/svg" viewBox="0 0 72.27 72.27"><defs><style>.cls-1,.cls-2{fill:#fff;stroke-miterlimit:10;}.cls-1{stroke:#fff;}.cls-2{stroke:#1a1a1a;stroke-width:1.5px;}</style></defs><title>lb_icons1</title><g id="Layer_2" data-name="Layer 2"><g id="Layer_1-2" data-name="Layer 1-2"><path class="cls-1" d="M36.14.5A35.64,35.64,0,1,0,71.77,36.14,35.67,35.67,0,0,0,36.14.5Z"/></g></g><path class="cls-2" d="M55,58.14c-.08-3.41-1.8-4.09-4.72-4.09A5.61,5.61,0,0,1,45,51.14c-1.2-2.28,2.15-7.16,3.77-9.5l.39-.57h0a1.7,1.7,0,0,0,2.38-.37l2.76-3.78A1.7,1.7,0,0,0,54,34.55l-8.09-5.92a1.64,1.64,0,0,0-1-.33,1.7,1.7,0,0,0-1.38.7l-2.76,3.78a1.7,1.7,0,0,0,0,2.06L39.42,36.6c-1.41-1.13-1.61-1.94-.92-3.46s1.76-4.43,1-6.51c-.71-1.86-1.87-2.42-3.34-3.13A13.17,13.17,0,0,1,32.37,21,21.3,21.3,0,0,1,28,15.09c-.38-.71-.75-1.38-1.16-2-1.28-1.91-2.24-2.95-2.92-3.15a.31.31,0,0,0-.19,0h0l0,0s0,0,0,0l0,0a.08.08,0,0,0,0,.05h0c-.29.86.26,3.7,2,7a4,4,0,0,0-1.69-1.09.28.28,0,0,0-.32.22c-.18.81.52,3.09,2.3,5.76a4.52,4.52,0,0,0-2-.8.32.32,0,0,0-.3.26c-.08.8.79,2.55,2.56,4.59a5.2,5.2,0,0,0-2.3-.38.29.29,0,0,0-.26.3c0,.77,1,2.17,2.68,3.76a5,5,0,0,0-2.45-.17.25.25,0,0,0-.2.14.3.3,0,0,0,0,.23c.63,1.73,3.85,4.33,11,6.48a2.94,2.94,0,0,0,3.14,2.46l-6.81,8.87a1.51,1.51,0,0,0-.91-.32,1.73,1.73,0,0,0-1.56,1.08,1.58,1.58,0,0,0,.37,1.77l6,5.53a.29.29,0,0,0,.4,0,1.53,1.53,0,0,1,1-.56,2.11,2.11,0,0,1,1.32.79c2.8,2.77,6.41,4.11,11,4.11h6.23a1,1,0,0,0,.28-2Zm-.57,0H48.57a2.67,2.67,0,0,1-.24-1.77,3.21,3.21,0,0,1,.79-1.79,8.94,8.94,0,0,0,1.17.09C53,54.62,54.37,55.15,54.45,58.09Zm-13.26-25L44,29.33a1.14,1.14,0,0,1,.92-.46,1.17,1.17,0,0,1,.67.22l1.22.89-.84,1.14a.29.29,0,0,0,.06.4.27.27,0,0,0,.17.06.28.28,0,0,0,.23-.12l.84-1.14,2.13,1.56L47.51,34.4a.29.29,0,0,0,.06.4.34.34,0,0,0,.17.05.28.28,0,0,0,.23-.12l1.84-2.51L52,33.78l-.84,1.14a.29.29,0,0,0,.06.4.27.27,0,0,0,.17.06.28.28,0,0,0,.23-.12l.84-1.14,1.21.89a1.11,1.11,0,0,1,.25,1.58l-2.76,3.78a1.17,1.17,0,0,1-1.59.25L41.43,34.7A1.14,1.14,0,0,1,41.19,33.11ZM33.91,44.7c1.43,4.24,7.23,9.82,10.66,10.1h.27a2.08,2.08,0,0,0,1.92-1.06,6.46,6.46,0,0,0,1.7.66,4.47,4.47,0,0,0-.69,1.82,3.32,3.32,0,0,0,.16,1.86h-.46a12.9,12.9,0,0,1-8.93-3.51c-2.65-2.24-6.24-5.51-7.27-6.44Z"/><path class="cls-2" d="M21.16,27.94a.29.29,0,1,0,0-.57H19.21a.29.29,0,0,0,0,.57"/><path class="cls-2" d="M21.16,16.52a.29.29,0,1,0,0-.57H17.51a.29.29,0,0,0,0,.57"/><path class="cls-2" d="M9.24,19.76a.29.29,0,1,0,0,.57H19.91a.29.29,0,0,0,0-.57"/><path class="cls-2" d="M20,24.13a.28.28,0,0,0,.28-.28.29.29,0,0,0-.28-.29H13.76a.28.28,0,0,0-.28.29.27.27,0,0,0,.28.28"/></svg>