<svg id="Layer_1" data-name="Layer 1" xmlns="http://www.w3.org/2000/svg" viewBox="0 0 72.27 72.27"><defs><style>.cls-1{fill:#fff;}.cls-1,.cls-2{stroke:#fff;stroke-miterlimit:10;}.cls-2{fill:none;stroke-width:5px;}.cls-3{fill:#1a1a1a;}</style></defs><title>lb_icons1</title><g id="Layer_2" data-name="Layer 2"><g id="Layer_1-2" data-name="Layer 1-2"><path class="cls-1" d="M36.14.5A35.64,35.64,0,1,0,71.77,36.14,35.67,35.67,0,0,0,36.14.5Z"/></g></g><line class="cls-2" x1="15.88" y1="56.41" x2="56.32" y2="15.87"/><path class="cls-3" d="M61.45,51.56H10.74a.84.84,0,0,0,0,1.68h1.42l-1.82,2.43a.83.83,0,1,0,1.33,1l2.58-3.43h2.53L15,55.67a.84.84,0,0,0,1.33,1h0l2.57-3.43H21.4l-1.82,2.43a.84.84,0,0,0,1.34,1l2.57-3.43H26L24.2,55.67a.84.84,0,0,0,1.34,1l2.57-3.43h2.54l-1.83,2.43a.84.84,0,0,0,1.34,1h0l2.58-3.43h2.53l-1.83,2.43a.84.84,0,0,0,1.34,1h0l2.58-3.43h2.53l-1.82,2.43a.83.83,0,1,0,1.33,1h0L42,53.24h2.53l-1.82,2.43a.84.84,0,0,0,1.34,1h0l2.57-3.43h2.53l-1.82,2.43a.84.84,0,0,0,1.33,1h0l2.57-3.43h2.54l-1.83,2.43a.84.84,0,0,0,.17,1.17.83.83,0,0,0,1.17-.17h0l2.58-3.43h2.53l-1.82,2.43a.83.83,0,1,0,1.33,1h0l2.58-3.43h1a.84.84,0,0,0,0-1.68Z"/><path class="cls-3" d="M36.59,49.5a.78.78,0,0,0,.6.25.89.89,0,0,0,.6-.24L58.85,28.25l-.75,4.37a.82.82,0,0,0,.69,1,.83.83,0,0,0,1-.68L61,25.54a.83.83,0,0,0-.68-1,.74.74,0,0,0-.44,0l-6.78,2.56a.82.82,0,0,0-.49,1.08.83.83,0,0,0,1.07.49h0l3.69-1.39L37.2,47.72,16.1,26.14a.83.83,0,0,0-1.18,0,.84.84,0,0,0,0,1.18h0Z"/><path class="cls-3" d="M37.55,33.29a3.82,3.82,0,0,0,4-3.65c0-3.12-3-7.51-3.1-7.7a.82.82,0,0,0-.67-.36.8.8,0,0,0-.68.32c-.14.19-3.44,4.52-3.44,7.74A3.82,3.82,0,0,0,37.55,33.29Zm.12-9.37c.91,1.54,2.15,4,2.15,5.72a2.29,2.29,0,0,1-4.54,0C35.28,27.91,36.66,25.44,37.67,23.92Z"/><path class="cls-3" d="M47.68,25.44a3.8,3.8,0,0,0,3.94-3.64c0-3.13-3-7.52-3.09-7.7a.85.85,0,0,0-.67-.37.81.81,0,0,0-.69.33c-.14.18-3.43,4.52-3.43,7.74A3.8,3.8,0,0,0,47.68,25.44Zm.12-9.36c.91,1.54,2.15,4,2.15,5.72a2.29,2.29,0,0,1-4.54,0C45.41,20.07,46.79,17.6,47.8,16.08Z"/></svg>