<svg id="Layer_1" data-name="Layer 1" xmlns="http://www.w3.org/2000/svg" viewBox="0 0 72.27 72.27"><defs><style>.cls-1{fill:#fff;}.cls-1,.cls-3{stroke:#fff;}.cls-1,.cls-3,.cls-4{stroke-miterlimit:10;}.cls-2{fill:#1a1a1a;}.cls-3,.cls-4{fill:none;}.cls-3{stroke-width:5px;}.cls-4{stroke:#1a1a1a;stroke-width:2px;}</style></defs><title>lb_icons1</title><g id="Layer_2" data-name="Layer 2"><g id="Layer_1-2" data-name="Layer 1-2"><path class="cls-1" d="M36.14.5A35.64,35.64,0,1,0,71.77,36.14,35.67,35.67,0,0,0,36.14.5Z"/></g></g><path class="cls-2" d="M53.29,21.85a22.86,22.86,0,0,1,5.42,14H50.07a43.84,43.84,0,0,0-1.28-9.47l-1.57,1.57a35.7,35.7,0,0,1,.92,7.81H39.32l-1.84,2H48.23a36.89,36.89,0,0,1-1.83,11,41,41,0,0,0-9.75-1.38V38.58l-1.93,1.93V47.4a44.06,44.06,0,0,0-7.9.92l-2.95,3a22.39,22.39,0,0,0,5,7.62,21.73,21.73,0,0,1-8.09-4.5l-1.38,1.38a24.85,24.85,0,0,0,16.27,6.07,25.27,25.27,0,0,0,18.11-7.73c.46-.45.83-.91,1.29-1.37a25,25,0,0,0,0-31.81l-.37-.37M53.2,52a26.58,26.58,0,0,0-5.06-2.67,37.48,37.48,0,0,0,1.93-11.58h8.64A24,24,0,0,1,53.2,52ZM42.44,58.89a21.15,21.15,0,0,0,5.06-7.81A30.7,30.7,0,0,1,52.1,53,23.19,23.19,0,0,1,42.44,58.89Zm-5.79-9.56a47.22,47.22,0,0,1,9.1,1.2c-2.11,5.24-5.33,8.73-9.1,9.28Zm-11,1.2a35,35,0,0,1,9.1-1.2V59.81C31,59.26,27.73,55.77,25.62,50.53Z"/><path class="cls-2" d="M16.7,53.1h0l1.57.56L53.38,19.18,52,17.8h0a24.84,24.84,0,0,0-16.27-6.06,25.26,25.26,0,0,0-18.11,7.72c-.46.46-.82.92-1.28,1.38a25,25,0,0,0,0,31.8A1.49,1.49,0,0,0,16.7,53.1ZM18,21.94a27,27,0,0,0,5.24,2.3A37.78,37.78,0,0,0,21.3,35.82H12.66A22.53,22.53,0,0,1,18,21.94Zm10.94-7.26a21.36,21.36,0,0,0-5.06,7.81,29.57,29.57,0,0,1-4.59-1.93A23.56,23.56,0,0,1,28.93,14.68Zm5.79,9.56a45.71,45.71,0,0,1-9.1-1.2c2.11-5.24,5.33-8.73,9.1-9.28Zm0,1.93V35l-.83.83H23.23a37,37,0,0,1,1.84-11A39.19,39.19,0,0,0,34.72,26.17Zm1.93,0a43.28,43.28,0,0,0,7.91-.92l-7.91,7.91ZM45.75,23a35,35,0,0,1-9.1,1.2V13.76C40.33,14.31,43.64,17.8,45.75,23Zm4.78-3.86-3.12,3.13a22.44,22.44,0,0,0-5-7.63A21.87,21.87,0,0,1,50.53,19.18ZM24.15,45.57a35.86,35.86,0,0,1-.92-7.82H32Zm-5.88,5.88c-.1.09-.19.09-.28.18a22.53,22.53,0,0,1-5.33-13.88H21.3a43.22,43.22,0,0,0,1.29,9.47Z"/><line class="cls-3" x1="15.88" y1="56.41" x2="56.32" y2="15.87"/><line class="cls-4" x1="16.34" y1="52.64" x2="51.54" y2="17.44"/><line class="cls-4" x1="19.65" y1="55.77" x2="54.76" y2="20.65"/></svg>