<svg id="Layer_1" data-name="Layer 1" xmlns="http://www.w3.org/2000/svg" viewBox="0 0 72.27 72.27"><defs><style>.cls-1{fill:#fff;}.cls-1,.cls-2{stroke:#fff;}.cls-1,.cls-2,.cls-3{stroke-miterlimit:10;}.cls-2{fill:none;stroke-width:5px;}.cls-3{fill:#1a1a1a;stroke:#1a1a1a;stroke-width:0.5px;}</style></defs><title>lb_icons1</title><g id="Layer_2" data-name="Layer 2"><g id="Layer_1-2" data-name="Layer 1-2"><path class="cls-1" d="M36.14.5A35.64,35.64,0,1,0,71.77,36.14,35.67,35.67,0,0,0,36.14.5Z"/></g></g><line class="cls-2" x1="15.88" y1="56.41" x2="56.32" y2="15.87"/><path class="cls-3" d="M35.83,31.27h0l-.14-.63,0-.06s0,0,0,0h0l-.41-.59,0,0,0,0-.68-.51h0l0,0L33.55,29h0l-1-.25h-.05l-1.09-.08h0l-1.11.08h0l-1,.25h-.05l-.89.39,0,0h0l-.68.51,0,0,0,0-.41.59h0s0,0,0,0,0,0,0,.05h0l-.14.63h0a0,0,0,0,0,0,0v2.11a0,0,0,0,0,0,0s0,0,0,0l.14.63h0a.36.36,0,0,0,0,.09h0l.42.6s0,0,0,0,0,0,0,0l.68.51h0l0,0,.89.39h.05l1,.25h0l1.11.08h0l1.1-.08h.05l1-.25h0l.9-.39,0,0h0l.68-.51s0,0,0,0,0,0,0,0l.41-.6h0a.24.24,0,0,0,0-.09l.15-.63v0s0,0,0,0V31.32s0,0,0,0A0,0,0,0,0,35.83,31.27ZM28.41,29.8l.85-.36,1-.24,1.07-.08,1.05.08,1,.24.85.36.62.47.36.52.13.53-.13.52-.36.53-.62.47-.85.37-1,.23-1.06.08-1.07-.08-1-.23-.84-.37-.63-.47-.36-.53-.12-.52.12-.53.36-.52Z"/><path class="cls-3" d="M45.5,36.83h0l-.16-.63,0,0a.06.06,0,0,0,0,0h0l-.41-.58,0,0,0,0L44.14,35s0,0,0,0h0l-.89-.4h0l-1-.25h0L41,34.17h0l-1.11.08h0l-1,.25s0,0,0,0h0l-.89.4h0l0,0-.68.51,0,0,0,0-.41.59h0s0,0,0,0,0,0,0,.05h0l-.12.63h0V39s0,0,0,0v0l.12.64h0v0l0,.07h0l.42.6,0,0,0,0,.68.51h0l0,0,.9.38h0l1,.25h0L41,41.7h0l1.09-.08h0l1-.25h.05l.89-.38,0,0h0l.68-.51s0,0,0,0l0,0,.42-.6h0a.79.79,0,0,0,0-.09h0l.15-.64s0,0,0,0V36.83Zm-7.43-1.45.84-.38,1-.24L41,34.69l1.06.07L43,35l.85.38.62.46.37.52.13.52-.13.55-.37.52-.62.46-.85.38L42,39,41,39.1,39.91,39l-1-.22-.84-.38L37.44,38l-.36-.51-.1-.56.1-.52.36-.52Z"/><path class="cls-3" d="M44.12,23.77l-9.65-5.56h0l-3-1.76H31.2l-3,1.76L18.5,23.77l-6.64,3.84h0l0,0,0,0a0,0,0,0,0,0,0h0v0s0,0,0,0,0,0,0,0v0h0V40.41a.13.13,0,0,0,0,.06l0,0,0,0,0,0,0,0,29,16.72h0a.27.27,0,0,0,.12,0,.2.2,0,0,0,.11,0h0l19.3-11.15a0,0,0,0,0,0,0,.08.08,0,0,0,0,0s0,0,0,0a.05.05,0,0,0,0,0,.09.09,0,0,0,0-.05,0,0,0,0,0,0,0V33.41h0s0,0,0,0a149848826724.7,149848826724.7,0,0,0,0-.06v0h0l0,0s0,0,0,0l0,0h0l-6.64-3.84ZM12.25,28.28,40.72,44.7V56.64L12.25,40.23ZM41,44.26,12.51,27.83l4.77-2.75-.14.6h0a0,0,0,0,0,0,0v2.11a0,0,0,0,0,0,0s0,0,0,0l.14.64h0a.59.59,0,0,0,0,.08h0l.41.59h0s0,0,0,0l.68.51h0l0,0,.89.4h0l1,.25h.05l1.09.08h0l1.11-.08h0l1-.25h0l.89-.4,0,0h0l.68-.51,0,0,0,0,.41-.59h0a.59.59,0,0,0,0-.08h0l.14-.64v0s0,0,0,0V25.69h0L26,25.05h0L26,25a0,0,0,0,1,0,0h0l-.41-.59,0,0,0,0-.68-.51h0s0,0,0,0l-.9-.38h0l-1-.25h0L21.66,23h0l-.9.06,6.21-3.58-.14.61h0s0,0,0,0v2.12a0,0,0,0,0,0,0s0,0,0,0l.14.63,0,.09h0l.41.59,0,0,0,0,.68.51h0l0,0,.89.4s0,0,0,0h0l1,.25h0l1.11.08h0l1.09-.08h.05l1-.24h0s0,0,0,0l.89-.4,0,0h0l.68-.51,0,0,0,0,.41-.59h0l0-.09.14-.63s0,0,0,0,0,0,0,0V20.15s0,0,0,0h0l-.14-.61,6.21,3.58L41,23h0l-1.11.08h0l-1,.25h0l-.9.38s0,0,0,0h0l-.68.51,0,0,0,0-.41.6h0s0,0,0,.05l0,0h0l-.12.63h0v2.14s0,0,0,0v0l.12.65h0s0,0,0,0l0,.07h0l.42.59h0l0,0,.68.51h0l0,0,.89.4h.05l1,.25h0l1.11.08h0l1.09-.08h0l1-.25h0l.89-.4,0,0h0l.68-.51a.08.08,0,0,0,0,0h0l.42-.59h0a.2.2,0,0,0,0-.08h0l.15-.64s0,0,0,0V25.69h0l-.14-.6,6.21,3.59-.91-.07h0l-1.11.08h0l-1,.25h-.05l-.86.39s0,0,0,0h0l-.67.51,0,0,0,0-.43.6h0a.36.36,0,0,0,0,.09l-.15.64h0v2.21l.15.63a.25.25,0,0,0,0,.09h0l.43.59,0,0,0,0,.67.51h0l0,0,.86.38h.05l1,.25h0l1.11.08h0L51.74,36h0l1-.25h0l.89-.39a.05.05,0,0,1,0,0h0l.68-.51s0,0,0,0l0,0,.43-.6h0a.25.25,0,0,0,0-.09l.15-.63s0,0,0,0V31.27h0l-.14-.6,4.75,2.75ZM21.64,23.54l1.07.08,1,.24.85.36.62.47.36.52.13.53-.13.53-.36.53-.62.47-.85.36-1,.24L21.64,28l-1.05-.08-1-.24-.85-.36-.62-.47-.36-.53-.13-.53.13-.53.36-.52.62-.47.85-.36,1-.24ZM31.33,17l.94.54-.92-.07h0l-.94.07Zm0,1,1.06.08,1,.23.85.37.62.47.36.53.13.52-.13.53-.36.52-.62.47-.85.36-1,.24-1.05.08-1.07-.08-1-.24-.85-.36-.62-.47-.36-.52-.12-.53.12-.52.36-.53.63-.47.84-.37,1-.23Zm6.74,6.25.84-.36,1-.24L41,23.54l1.06.08,1,.24.85.36.62.47.37.52.13.53-.13.53-.37.53-.62.47-.85.36-1,.24L41,28l-1.07-.08-1-.24-.84-.36-.62-.47-.37-.53-.1-.53.1-.53.37-.52Zm9.68,5.58.81-.36,1-.24,1.07-.08,1.06.08,1,.24.85.36.62.47.38.52.12.53-.12.52-.38.53-.62.47-.85.37-1,.23-1.06.08-1.07-.08-1-.23-.81-.37-.62-.47-.38-.53-.12-.52.12-.53.38-.52Z"/></svg>