<svg id="Layer_1" data-name="Layer 1" xmlns="http://www.w3.org/2000/svg" viewBox="0 0 72.27 72.27"><defs><style>.cls-1,.cls-4{fill:#fff;}.cls-1,.cls-2,.cls-3{stroke:#fff;stroke-miterlimit:10;}.cls-2{fill:none;stroke-width:5px;}.cls-3{fill:#1a1a1a;stroke-width:0.75px;fill-rule:evenodd;}</style></defs><title>lb_icons1</title><g id="Layer_2" data-name="Layer 2"><g id="Layer_1-2" data-name="Layer 1-2"><path class="cls-1" d="M36.14.5A35.64,35.64,0,1,0,71.77,36.14,35.67,35.67,0,0,0,36.14.5Z"/></g></g><line class="cls-2" x1="15.88" y1="56.41" x2="56.32" y2="15.87"/><path class="cls-3" d="M36.82,15.23l1.24,6.19A14.59,14.59,0,0,1,50.72,34.07l6.33,1.24a.77.77,0,0,1,0,1.51l-6.33,1.24A14.6,14.6,0,0,1,38.06,50.72l-1.24,6.33a.77.77,0,0,1-1.51,0l-1.24-6.33A14.59,14.59,0,0,1,21.42,38.06l-6.19-1.24a.77.77,0,0,1,0-1.51l6.19-1.24A14.58,14.58,0,0,1,34.07,21.42l1.24-6.19A.77.77,0,0,1,36.82,15.23Zm1.79,8.66,1.24,6.61L43.56,28c.42-.27.83.14.55.55l-2.47,3.71,6.6,1.38A12.36,12.36,0,0,0,38.61,23.89Zm9.63,14.72-6.6,1.24,2.47,3.71c.28.42-.13.83-.55.55l-3.71-2.47-1.24,6.6A12.35,12.35,0,0,0,48.24,38.61ZM33.66,48.24l-1.38-6.6-3.71,2.47c-.41.28-.82-.13-.55-.55l2.48-3.71-6.61-1.24A12.36,12.36,0,0,0,33.66,48.24ZM23.89,33.66l6.61-1.38L28,28.57a.39.39,0,0,1,.55-.55l3.71,2.48,1.38-6.61A12.36,12.36,0,0,0,23.89,33.66Z"/><polygon class="cls-4" points="36.14 27.22 34.38 34.44 27.23 36.14 34.44 37.78 36.14 45.05 37.83 37.81 45.05 36.14 38.07 34.55 36.14 27.22"/></svg>