<svg id="Layer_1" data-name="Layer 1" xmlns="http://www.w3.org/2000/svg" viewBox="0 0 72.27 72.27"><defs><style>.cls-1{fill:#fff;stroke:#fff;stroke-miterlimit:10;}.cls-2{fill:#1a1a1a;}</style></defs><title>lb_icons1</title><g id="Layer_2" data-name="Layer 2"><g id="Layer_1-2" data-name="Layer 1-2"><path class="cls-1" d="M36.14.5A35.64,35.64,0,1,0,71.77,36.14,35.67,35.67,0,0,0,36.14.5Z"/></g></g><path class="cls-2" d="M34.87,29.87A10.68,10.68,0,1,0,24.19,19.19,10.7,10.7,0,0,0,34.87,29.87Zm0-19.23a8.55,8.55,0,1,1-8.55,8.55A8.56,8.56,0,0,1,34.87,10.64Z"/><path class="cls-2" d="M34.87,25.59a6.41,6.41,0,0,0,6.27-5.12A1.07,1.07,0,1,0,39.05,20a4.27,4.27,0,0,1-8.37,0,1.07,1.07,0,0,0-2.09.43A6.43,6.43,0,0,0,34.87,25.59Z"/><circle class="cls-2" cx="31.66" cy="15.98" r="1.07"/><circle class="cls-2" cx="38.07" cy="15.98" r="1.07"/><path class="cls-2" d="M52.14,47.26l-3.39,3.4L47.49,49.4A1.07,1.07,0,0,0,46,50.91l2,2a1.07,1.07,0,0,0,1.51,0l4.15-4.15a1.06,1.06,0,0,0,0-1.51A1.08,1.08,0,0,0,52.14,47.26Z"/><path class="cls-2" d="M50.72,38.5a16.92,16.92,0,0,0-7.62-8.63h0L43,29.82l-.14,0a.81.81,0,0,0-.22-.07,1.34,1.34,0,0,0-.2,0l-.2,0a2,2,0,0,0-.22.09l-.12.05a12.94,12.94,0,0,1-14.11,0l-.13-.05a1.33,1.33,0,0,0-.21-.09l-.2,0a1.33,1.33,0,0,0-.2,0,.81.81,0,0,0-.22.07l-.14,0-.07,0,0,0a17,17,0,0,0-8.84,14.94v7.47a7.49,7.49,0,0,0,7.47,7.48H44.48a7.62,7.62,0,0,0,2.44-.45,10.63,10.63,0,1,0,3.8-20.82ZM25.25,57.63a5.34,5.34,0,0,1-5.33-5.34V44.82A14.85,14.85,0,0,1,27.25,32a14.63,14.63,0,0,0,15.22,0,14.72,14.72,0,0,1,5.9,6.54,10.62,10.62,0,0,0-4.9,19.08Zm24.57,0a8.55,8.55,0,1,1,8.54-8.54A8.55,8.55,0,0,1,49.82,57.63Z"/></svg>