<svg id="Layer_1" data-name="Layer 1" xmlns="http://www.w3.org/2000/svg" viewBox="0 0 72.27 72.27"><defs><style>.cls-1{fill:#fff;}.cls-1,.cls-2,.cls-4{stroke:#fff;stroke-miterlimit:10;}.cls-2,.cls-5{fill:none;}.cls-2{stroke-width:5px;}.cls-3,.cls-4{fill:#1a1a1a;}.cls-4{stroke-width:0.25px;}.cls-5{stroke:#1a1a1a;stroke-linecap:round;stroke-linejoin:round;stroke-width:2px;}</style></defs><title>lb_icons1</title><g id="Layer_2" data-name="Layer 2"><g id="Layer_1-2" data-name="Layer 1-2"><path class="cls-1" d="M36.14.5A35.64,35.64,0,1,0,71.77,36.14,35.67,35.67,0,0,0,36.14.5Z"/></g></g><line class="cls-2" x1="15.88" y1="56.41" x2="56.32" y2="15.87"/><path class="cls-3" d="M53,25.54a20.29,20.29,0,0,0-6-6.05,10.87,10.87,0,0,0-21.64,0,20.14,20.14,0,0,0-6,6.05,10.86,10.86,0,0,0,0,21.63,20.14,20.14,0,0,0,6,6,10.87,10.87,0,0,0,21.64,0,20.29,20.29,0,0,0,6-6,10.86,10.86,0,0,0,0-21.63ZM36.1,11.29a9.19,9.19,0,1,1-9.19,9.19A9.18,9.18,0,0,1,36.1,11.29ZM11,36.35a9.2,9.2,0,1,1,9.19,9.2A9.2,9.2,0,0,1,11,36.35ZM36.1,61.42a9.19,9.19,0,1,1,9.19-9.19h0A9.2,9.2,0,0,1,36.1,61.42ZM46.91,51.21a10.86,10.86,0,0,0-21.62,0,18.65,18.65,0,0,1-4-4,10.86,10.86,0,0,0,0-21.63,18.43,18.43,0,0,1,4-4,10.86,10.86,0,0,0,21.62,0,18.43,18.43,0,0,1,4,4,10.86,10.86,0,0,0,0,21.63A18.65,18.65,0,0,1,46.91,51.21ZM52,45.55a9.2,9.2,0,1,1,9.19-9.2A9.2,9.2,0,0,1,52,45.55Z"/><path class="cls-4" d="M42.54,50a.83.83,0,0,0-1.18,0h0l-1.43,1.42H38.12l1.5-1.49a.84.84,0,0,0,0-1.18.83.83,0,0,0-1.18,0l-1.49,1.49V49l1.42-1.43a.83.83,0,0,0-1.18-1.18l-.24.24V45.55a.84.84,0,0,0-1.68,0v1.11L35,46.42a.83.83,0,0,0-1.18,1.18L35.26,49v1.18l-1.49-1.49a.84.84,0,1,0-1.19,1.18l1.5,1.49H32.27L30.84,50a.83.83,0,0,0-1.18,0,.85.85,0,0,0,0,1.18l.25.24h-.49a.84.84,0,0,0,0,1.68h.49l-.25.24a.83.83,0,1,0,1.18,1.18l1.43-1.42h1.81l-1.5,1.49a.84.84,0,1,0,1.19,1.19l1.49-1.5v1.19l-1.42,1.42A.83.83,0,0,0,35,58h0l.24-.24v1.12a.84.84,0,0,0,1.68,0V57.8l.24.24a.83.83,0,0,0,1.18-1.18l-1.42-1.42V54.25l1.49,1.5a.84.84,0,0,0,1.19-1.19l-1.5-1.49h1.81l1.43,1.42a.83.83,0,0,0,1.18,0,.85.85,0,0,0,0-1.18l-.24-.24h.48a.84.84,0,1,0,0-1.68H42.3l.24-.24A.91.91,0,0,0,42.54,50Z"/><path class="cls-4" d="M53.94,29.73a.86.86,0,0,0-.6.61c-.31,1.25-1.24,1.9-2.75,2.58-1.35.62-3.22,1.47-3.63,3.53a4.52,4.52,0,0,0,1.25,4.07l-.94,1.11a.84.84,0,0,0,1.28,1.08l1.08-1.29a5.37,5.37,0,0,0,7.42-4.84A9.14,9.14,0,0,0,54.76,30,.83.83,0,0,0,53.94,29.73Zm1.45,6.72a4.06,4.06,0,0,1-1.46,2.95A3.9,3.9,0,0,1,50.8,40l1-1.23a.83.83,0,1,0-1.27-1.08l-1.28,1.51a2.85,2.85,0,0,1-.69-2.45c.23-1.14,1.21-1.67,2.69-2.34a6.86,6.86,0,0,0,3.05-2.27,7.66,7.66,0,0,1,1,4.28Z"/><path class="cls-4" d="M27.1,38.48A1.69,1.69,0,0,0,27,37.06l-.1-.17a1.68,1.68,0,0,0,0-2.37,1.72,1.72,0,0,0-.61-.37s0-.09,0-.13a1.67,1.67,0,0,0-1.67-1.67h0a1.54,1.54,0,0,0-.56.1l.05-.2a1.67,1.67,0,0,0-1.16-2.06,1.61,1.61,0,0,0-.44-.06h-.06a1.76,1.76,0,0,0-.45.07l-.12-.3a1.67,1.67,0,0,0-3.11,0l-.12.3a1.69,1.69,0,0,0-2.1,1.1,1.71,1.71,0,0,0,0,.84l.06.31a1.67,1.67,0,0,0-2.14,1,1.65,1.65,0,0,0-.09.7,1.68,1.68,0,0,0-.65,2.74l-.1.17a1.67,1.67,0,0,0,.58,2.29,1.11,1.11,0,0,0,.27.13,1.67,1.67,0,0,0,.56,2.09,3.5,3.5,0,0,0,2,.63,5.33,5.33,0,0,0,2.44-.66v2.23a.84.84,0,1,0,1.67,0V41.54a5.33,5.33,0,0,0,2.44.66,3.5,3.5,0,0,0,2.05-.63,1.68,1.68,0,0,0,.56-2.09A1.69,1.69,0,0,0,27.1,38.48Zm-2.37-1.9.79,1.34-1.95.7,1,1.58a1.87,1.87,0,0,1-1.1.33,4.52,4.52,0,0,1-2.44-1V36.22a.84.84,0,0,0-1.67,0v3.36a4.55,4.55,0,0,1-2.44,1,1.87,1.87,0,0,1-1.1-.33l1-1.58-2-.7.8-1.34-.93-.86,1.39.11L15.9,34l2,1.46a.46.46,0,0,0,.32.11.54.54,0,0,0,.54-.54s0-.08,0-.12l-.65-3.13,1.36.79.81-2.08L21,32.59l1.36-.79-.77,3.27a.54.54,0,0,0,.4.66l.12,0a.55.55,0,0,0,.33-.12L24.54,34l-.27,1.54,1.39.16Z"/><polyline class="cls-5" points="34.84 25.59 38.08 20.41 33.49 18.79 33.72 18.42 36.68 15.12 35.88 15.12 33.72 18.42"/></svg>