<svg id="Layer_1" data-name="Layer 1" xmlns="http://www.w3.org/2000/svg" viewBox="0 0 72.27 72.27"><defs><style>.cls-1{fill:#fff;}.cls-2{fill:#1a1a1a;stroke:#fff;stroke-miterlimit:10;stroke-width:1.5px;}</style></defs><title>money smaller-08</title><g id="Layer_2" data-name="Layer 2"><g id="Layer_1-2" data-name="Layer 1-2"><path class="cls-1" d="M36.14.5A35.64,35.64,0,1,0,71.77,36.14,35.67,35.67,0,0,0,36.14.5Z"/></g></g><g id="Layer_2-2" data-name="Layer 2"><g id="Layer_1-2-2" data-name="Layer 1-2"><path class="cls-2" d="M29,53.77a4,4,0,0,1-3.48-1.68A3.06,3.06,0,0,1,26,48.47a16.4,16.4,0,0,0,4.24-8.55l.07-.49H26.54a2.37,2.37,0,0,1,0-4.74H30l-.21-.77c-.07-.14-.07-.35-.14-.49-1.74-5.16-.07-10.46,4.11-13.25S43.14,18,47.12,21.57a2.83,2.83,0,0,1,1,2,3,3,0,0,1-2.79,3.13A2.7,2.7,0,0,1,43.14,26c-2-1.68-4.11-2-5.93-.84a5.16,5.16,0,0,0-1.81,6.35,21.54,21.54,0,0,1,.77,2.86l.07.35H42a2.37,2.37,0,1,1,0,4.74H36.51l-.06.35a19.8,19.8,0,0,1-1.89,6.69l-.21.49-.33.89c1.25.07,4,0,4.36,0h1.55s3.49-.16,4.37-.26a4,4,0,0,1,2.09.17,3,3,0,0,1,1.21,2.42c0,1.75-1,2.14-1.8,2.79-.76.4-1.33.87-4.12.87Z"/></g></g></svg>