<svg width="998" height="668" viewBox="0 0 998 668" fill="none" xmlns="http://www.w3.org/2000/svg">
<g filter="url(#filter0_f_88_3)">
<circle cx="252.378" cy="354.667" r="236.109" fill="#223D6F" fill-opacity="0.33"/>
</g>
<g filter="url(#filter1_f_88_3)">
<path d="M983.794 1568.73C983.794 1568.73 954.964 1577.31 938.809 1597.8C922.655 1618.29 983.794 1723.63 983.794 1723.63M944.832 1723.63C944.832 1723.63 931.528 1663.76 906.821 1650.46C882.114 1637.15 876.412 1712.23 876.412 1712.23M823.196 1700.82C823.196 1700.82 826.699 1604.86 844.103 1590.59C861.506 1576.32 897.546 1526.46 876.412 1495.56C871.191 1473.86 758.051 1520.18 760.478 1559.23C762.905 1598.28 788.892 1627.33 779.483 1685.62M712.964 1671.36C725.317 1575.39 682.349 1568.39 576.123 1609.6M487.507 1545.94L670.211 1510.92C750.337 1433.91 803.416 1403.15 876.412 1402.3C882.266 1370.11 860.777 1363.48 876.412 1309.23C892.047 1254.98 876.435 1152.01 876.412 1112.02C876.401 1093.58 833.877 1079.54 782.621 1041.23C721.598 999.183 599.67 853.729 584.949 833.396C570.229 813.063 503.88 818.058 503.88 818.058M374.234 793.531L303.281 780.107C259.765 776.572 226.509 784.923 163.208 804.468C245.526 844.433 291.715 849.569 374.234 793.531ZM374.234 793.531L479.592 813.463M479.592 813.463C407.01 821.682 368.623 836.686 303.281 877.549C303.281 877.549 399.739 908.243 453.667 875.756C507.595 843.268 503.88 818.058 503.88 818.058M479.592 813.463L503.88 818.058M879.253 888.23C880.235 907.48 880.9 927.751 881.298 949.126C700.678 899.117 658.853 800.257 672.239 519.099C791.928 577.506 846.131 646.323 868.284 779.063M879.253 888.23L836.311 865.767C772.486 850.369 745.775 818.93 711.934 728.158C772.223 737.073 808.616 769.553 879.253 888.23ZM879.253 888.23C877.176 847.531 873.681 811.4 868.284 779.063M868.284 779.063C841.146 765.394 838.708 752.251 819.11 740.067C757.589 720.261 711.122 680.123 702.671 594.519C737.212 597.602 772.532 635.854 868.284 779.063ZM641.524 454.173C611.097 388.37 603.47 349.461 600.956 277.695C666.328 331.466 681.999 400.734 683.097 412.268C684.195 423.802 683.097 434.416 673.905 444.738C664.713 455.061 645.793 460.254 641.524 454.173ZM641.524 454.173C641.524 454.173 688.45 505.742 729.458 502.818C770.465 499.893 769.468 343.539 741.594 293.352M562.398 405.871C598.649 454.173 604.08 452.389 618.409 487.732C632.737 523.074 628.608 516.248 622.707 560.702C616.806 605.156 618.635 705.584 616.364 728.158C614.093 750.733 575.494 686.324 541.28 637.899M562.398 405.871C503.905 371.387 486.706 326.425 470.538 222.394C547.104 266.4 583.458 295.539 562.398 405.871ZM371.168 759C371.168 759 529.548 790.784 541.28 780.107C548.852 773.216 536.932 708.654 506.404 654.248M541.28 637.899C521.677 566.697 508.668 536.117 534.241 487.732C582.032 544.699 587.034 571.731 581.169 593.083C575.303 614.436 564.672 608.81 541.28 637.899ZM541.28 637.899C512.585 597.285 490.046 557.435 475.439 535.167C460.831 512.899 430.506 492.962 430.506 492.962M430.506 492.334C345.817 475.042 321.046 450.198 310.841 383.228C377.472 393.031 408.077 409.659 430.506 492.334ZM430.506 492.334C410.452 416.356 407.606 375.53 433.848 309.317C481.752 380.055 482.661 422.279 430.506 492.334ZM433.848 531.061C447.995 546.003 451.302 560.721 469.081 586.164C476.437 596.691 489.632 624.358 506.404 654.248M433.848 531.061C349.194 488.701 311.944 490.406 246.077 531.061C311.886 578.108 349.26 579.43 433.848 531.061ZM506.404 654.248C417.034 587.379 366.678 584.904 283.196 599.138C363.864 674.505 412.729 702.483 506.404 654.248ZM982.178 856.226C966.763 762.503 952.637 702.044 931.14 659.215M931.14 659.215C916.21 629.471 897.726 608.23 872.787 590.256M931.14 659.215C931.14 659.215 982.178 606.342 982.178 564.516C982.178 522.69 959.657 451.908 959.657 451.908C927.907 504.859 914.469 540.476 931.14 659.215ZM872.787 590.256C872.787 590.256 858.845 580.603 863.135 559.154C865.115 549.257 885.218 509.463 906.575 455.977M872.787 590.256C858.958 583.53 805.33 533.311 805.33 502.818C805.33 484.124 803.761 448.859 798.787 397.453C793.812 346.047 789.541 307.19 752.067 254.61M959.657 238.488C971.803 145.213 966.679 103.87 947.86 39.0105C904.544 89.1437 882.439 173.068 903.889 202.025C925.338 230.981 959.657 238.488 959.657 238.488ZM959.657 238.488C958.141 312.46 931.504 393.546 906.575 455.977M906.575 455.977C905.895 455.061 905.221 454.149 904.552 453.24M906.575 455.977C905.869 455.1 905.195 454.187 904.552 453.24M904.552 453.24C821.754 340.881 817.894 290.675 848.91 213.638C885.235 245.761 919.73 301.497 906.575 334.501C893.844 366.443 885.221 424.805 904.552 453.24ZM752.067 254.61C741.79 158.806 762.993 121.179 824.801 68.3773C832.939 152.385 834.132 198.445 752.067 254.61ZM752.067 254.61C730.302 162.113 714.249 120.981 672.138 85.1623C665.635 165.76 675.757 205.895 727.382 240.194M752.067 254.61C742.947 249.857 734.742 245.085 727.382 240.194M752.067 254.61C743.487 249.518 735.27 244.713 727.382 240.194M741.594 293.352C675.896 217.777 647.306 202.809 600.956 191.54C632.185 259.904 654.261 309.022 683.097 313.831C711.934 318.64 741.594 293.352 741.594 293.352ZM374.234 759.818C311.142 666.532 262.742 664.768 163.208 712.857C245.12 742.387 291.153 756.506 374.234 759.818Z" stroke="#226F54" stroke-width="10"/>
</g>
<defs>
<filter id="filter0_f_88_3" x="-183.731" y="-81.4421" width="872.218" height="872.218" filterUnits="userSpaceOnUse" color-interpolation-filters="sRGB">
<feFlood flood-opacity="0" result="BackgroundImageFix"/>
<feBlend mode="normal" in="SourceGraphic" in2="BackgroundImageFix" result="shape"/>
<feGaussianBlur stdDeviation="100" result="effect1_foregroundBlur_88_3"/>
</filter>
<filter id="filter1_f_88_3" x="140.622" y="19.7745" width="856.496" height="1715.36" filterUnits="userSpaceOnUse" color-interpolation-filters="sRGB">
<feFlood flood-opacity="0" result="BackgroundImageFix"/>
<feBlend mode="normal" in="SourceGraphic" in2="BackgroundImageFix" result="shape"/>
<feGaussianBlur stdDeviation="4.5" result="effect1_foregroundBlur_88_3"/>
</filter>
</defs>
</svg>
